<svg width="485" height="111" viewBox="0 0 485 111" fill="none" xmlns="http://www.w3.org/2000/svg">
<path fill-rule="evenodd" clip-rule="evenodd" d="M38.0145 0H50.093V53.8956L49.0636 53.9495C38.9045 54.4813 30.0138 59.3895 24.1265 66.7493C23.7063 66.7692 23.2795 66.7792 22.8462 66.7792C16.5416 66.7792 11.1422 64.4098 6.64786 59.671C2.21595 54.8699 0 49.0088 0 42.0877C0 35.1666 2.21595 29.3367 6.64786 24.5979C11.1422 19.7968 16.5416 17.3963 22.8462 17.3963C29.4004 17.3963 34.4565 19.6721 38.0145 24.2238V0ZM15.7301 51.6276C18.227 54.0593 21.3481 55.2752 25.0933 55.2752C28.8386 55.2752 31.9285 54.0593 34.3629 51.6276C36.7973 49.1335 38.0145 45.9536 38.0145 42.0877C38.0145 38.2219 36.7973 35.0731 34.3629 32.6414C31.9285 30.1473 28.8386 28.9002 25.0933 28.9002C21.3481 28.9002 18.227 30.1473 15.7301 32.6414C13.2957 35.0731 12.0785 38.2219 12.0785 42.0877C12.0785 45.9536 13.2957 49.1335 15.7301 51.6276Z" fill="white"/>
<path d="M159.731 48.156V36.7566C159.731 30.7084 158.046 25.9697 154.675 22.5403C151.367 19.1109 147.154 17.3963 142.035 17.3963C135.668 17.3963 131.018 19.5786 128.084 23.9432V18.7057H116.005V50.4451L128.084 49.8128V40.2172C128.084 36.3513 129.02 33.4519 130.893 31.519C132.766 29.5861 135.262 28.6197 138.383 28.6197C141.192 28.6197 143.44 29.4614 145.125 31.1449C146.81 32.7661 147.653 35.1355 147.653 38.2531V48.7883L159.731 48.156Z" fill="white"/>
<path d="M106.925 50.9204V18.7057H94.8468V24.2238C91.2264 19.6721 86.1391 17.3963 79.5849 17.3963C73.3427 17.3963 67.9745 19.7968 63.4802 24.5979C59.0483 29.3367 56.8323 35.1666 56.8323 42.0877C56.8323 46.247 57.6326 50.0235 59.2332 53.4171L73.7259 52.6584C73.3228 52.3433 72.9349 51.9997 72.5625 51.6276C70.128 49.1335 68.9108 45.9536 68.9108 42.0877C68.9108 38.2219 70.128 35.0731 72.5625 32.6414C74.9969 30.1473 78.0867 28.9002 81.832 28.9002C85.5773 28.9002 88.6671 30.1473 91.1016 32.6414C93.5984 35.0731 94.8468 38.2219 94.8468 42.0877C94.8468 45.9536 93.5984 49.1335 91.1016 51.6276C91.0585 51.6706 91.0152 51.7133 90.9717 51.7556L106.925 50.9204Z" fill="white"/>
<path fill-rule="evenodd" clip-rule="evenodd" d="M261.375 42.0877C261.375 42.3347 261.371 42.584 261.363 42.8356L219.896 45.0064L213.028 40.1392C213.42 33.9544 215.709 28.7428 219.896 24.5044C224.515 19.7656 230.445 17.3963 237.686 17.3963C244.552 17.3963 250.201 19.7656 254.633 24.5044C259.128 29.2432 261.375 35.1043 261.375 42.0877ZM225.42 37.6919H249.296C248.61 34.5119 247.174 32.1426 244.989 30.5837C242.867 29.0249 240.432 28.2455 237.686 28.2455C234.44 28.2455 231.756 29.0873 229.633 30.7708C227.511 32.392 226.107 34.699 225.42 37.6919Z" fill="white"/>
<path d="M38.9074 91.9221C40.8352 97.6903 45.3834 100.387 52.552 100.012C57.1648 99.7701 60.574 98.0307 62.7794 94.7933L72.7978 99.8883C68.5345 106.792 61.9147 110.479 52.9383 110.949C45.2087 111.354 38.8838 109.343 33.9636 104.918C29.0434 100.493 26.3971 94.7311 26.0247 87.6327C25.6555 80.5966 27.6549 74.6228 32.0227 69.7113C36.3872 64.7375 42.185 62.0614 49.4159 61.6829C56.2729 61.3239 62.0384 63.3947 66.7125 67.8953C71.4489 72.3926 74.0001 78.1282 74.366 85.1021C74.4477 86.6587 74.3784 88.317 74.1582 90.0768L38.9074 91.9221ZM38.2303 82.5919L62.0737 81.3437C61.2214 78.204 59.6636 75.9129 57.4001 74.4705C55.1991 73.0248 52.7271 72.3737 49.9844 72.5173C46.7429 72.687 44.1066 73.6679 42.0754 75.46C40.0409 77.1899 38.7592 79.5672 38.2303 82.5919Z" fill="white"/>
<path d="M122.598 105.991L108.666 106.721L97.8232 93.0524L88.3762 107.783L76.0245 108.337L90.3058 83.7993L72.7421 61.7729L86.6741 61.0436L96.8089 73.7186L105.562 60.0548L119.4 59.3304L104.233 82.9766L122.598 105.991Z" fill="white"/>
<path d="M151.44 56.3419C157.736 56.0123 163.222 58.129 167.9 62.6918C172.636 67.1891 175.186 72.8936 175.548 79.8052C175.911 86.7168 173.974 92.6873 169.737 97.7168C165.56 102.681 160.323 105.328 154.027 105.657C147.482 106 142.314 103.991 138.522 99.6319L132.67 106.721L126.46 97.6095L124.299 59.0739L136.361 58.4425L136.65 63.9531C139.965 59.2216 144.895 56.6846 151.44 56.3419ZM141.733 91.1284C144.291 93.4296 147.44 94.4822 151.18 94.2864C154.921 94.0906 157.943 92.7149 160.246 90.1592C162.609 87.538 163.689 84.2972 163.487 80.4366C163.284 76.5761 161.872 73.4969 159.251 71.199C156.69 68.8356 153.539 67.7518 149.799 67.9476C146.058 68.1434 143.038 69.5503 140.738 72.1682C138.434 74.7239 137.384 77.932 137.586 81.7925C137.789 85.6531 139.171 88.765 141.733 91.1284Z" fill="white"/>
<path d="M192.637 83.8744C194.564 89.6427 199.113 92.3391 206.281 91.9639C210.894 91.7224 214.303 89.983 216.509 86.7456L226.527 91.8406C222.264 98.7446 215.644 102.432 206.668 102.901C198.938 103.306 192.613 101.296 187.693 96.8705C182.773 92.4453 180.126 86.6834 179.754 79.585C179.385 72.5489 181.384 66.5751 185.752 61.6636C190.116 56.6898 195.914 54.0137 203.145 53.6352C210.002 53.2762 215.768 55.347 220.442 59.8476C225.178 64.3449 227.729 70.0805 228.095 77.0544C228.177 78.611 228.108 80.2693 227.887 82.0291L192.637 83.8744ZM191.96 74.5442L215.803 73.296C214.951 70.1563 213.393 67.8652 211.129 66.4228C208.928 64.9771 206.456 64.326 203.714 64.4696C200.472 64.6393 197.836 65.6202 195.805 67.4123C193.77 69.1422 192.488 71.5195 191.96 74.5442Z" fill="white"/>
<path d="M245.904 60.7624C246.869 57.7149 248.59 55.377 251.068 53.7488C253.607 52.1173 256.467 51.2184 259.646 51.052L260.352 64.5016C256.651 64.2583 253.386 65.1784 250.558 67.262C247.792 69.3424 246.526 72.6242 246.761 77.1074L247.933 99.43L235.871 100.061L233.421 53.3614L245.482 52.73L245.904 60.7624Z" fill="white"/>
<path d="M267.329 98.4146L264.879 51.7146L276.941 51.0831L279.391 97.7832L267.329 98.4146Z" fill="white"/>
<path d="M297.788 78.3698C299.716 84.138 304.264 86.8345 311.432 86.4592C316.045 86.2177 319.454 84.4783 321.66 81.241L331.678 86.3359C327.415 93.2399 320.795 96.9269 311.819 97.3968C304.089 97.8014 297.764 95.7911 292.844 91.3659C287.924 86.9406 285.278 81.1788 284.905 74.0804C284.536 67.0443 286.535 61.0704 290.903 56.1589C295.268 51.1852 301.066 48.5091 308.296 48.1305C315.153 47.7716 320.919 49.8424 325.593 54.3429C330.329 58.8403 332.881 64.5759 333.246 71.5497C333.328 73.1064 333.259 74.7646 333.039 76.5244L297.788 78.3698ZM297.111 69.0396L320.954 67.7914C320.102 64.6517 318.544 62.3606 316.281 60.9181C314.08 59.4724 311.608 58.8213 308.865 58.9649C305.623 59.1346 302.987 60.1155 300.956 61.9077C298.921 63.6376 297.64 66.0149 297.111 69.0396Z" fill="white"/>
<path d="M364.497 45.1884C369.609 44.9208 373.906 46.4129 377.39 49.6646C380.935 52.9131 382.867 57.5572 383.184 63.5971L384.688 92.2709L372.626 92.9024L371.2 65.7229C371.037 62.6096 370.071 60.2875 368.303 58.7567C366.532 57.1636 364.244 56.4405 361.439 56.5873C358.322 56.7505 355.879 57.8461 354.11 59.8743C352.341 61.9025 351.558 64.8468 351.761 68.7074L353.084 93.9254L341.022 94.5568L338.572 47.8568L350.634 47.2254L350.908 52.4558C353.609 47.9437 358.139 45.5213 364.497 45.1884Z" fill="white"/>
<path d="M415.44 91.9723C408.396 92.341 402.381 90.2833 397.395 85.799C392.472 81.3115 389.827 75.5808 389.461 68.6069C389.095 61.633 391.126 55.6576 395.553 50.6806C400.042 45.7003 405.808 43.0258 412.852 42.657C417.403 42.4188 421.605 43.2915 425.46 45.275C429.314 47.2585 432.304 50.0366 434.429 53.6092L424.369 60.2235C423.333 58.3422 421.819 56.8917 419.828 55.8721C417.899 54.8492 415.75 54.3997 413.381 54.5237C409.766 54.713 406.837 56.0838 404.596 58.6362C402.351 61.1264 401.327 64.2395 401.523 67.9755C401.716 71.6492 403.06 74.6383 405.556 76.9427C408.049 79.1848 411.103 80.2112 414.719 80.022C417.15 79.8947 419.273 79.2528 421.087 78.0964C422.961 76.8744 424.315 75.2739 425.148 73.2946L435.934 78.724C434.07 82.5054 431.327 85.6148 427.704 88.0522C424.078 90.4274 419.99 91.7341 415.44 91.9723Z" fill="white"/>
<path d="M449.508 70.4272C451.436 76.1955 455.984 78.892 463.153 78.5167C467.766 78.2752 471.175 76.5358 473.38 73.2984L483.399 78.3934C479.135 85.2974 472.516 88.9844 463.539 89.4543C455.81 89.8589 449.485 87.8486 444.564 83.4233C439.644 78.9981 436.998 73.2363 436.626 66.1378C436.256 59.1017 438.256 53.1279 442.624 48.2164C446.988 43.2427 452.786 40.5665 460.017 40.188C466.874 39.829 472.639 41.8998 477.313 46.4004C482.05 50.8977 484.601 56.6333 484.967 63.6072C485.049 65.1639 484.979 66.8221 484.759 68.5819L449.508 70.4272ZM448.831 61.097L472.675 59.8488C471.822 56.7091 470.264 54.418 468.001 52.9756C465.8 51.5299 463.328 50.8788 460.585 51.0224C457.344 51.1921 454.707 52.173 452.676 53.9651C450.642 55.695 449.36 58.0723 448.831 61.097Z" fill="white"/>
<path d="M178.715 47.1622C178.116 45.6283 177.816 43.9367 177.816 42.0877C177.816 38.3466 179.002 35.2913 181.374 32.922C183.746 30.4902 186.743 29.2743 190.363 29.2743C192.735 29.2743 194.857 29.8355 196.73 30.9579C198.665 32.0802 200.101 33.6078 201.037 35.5407L211.43 29.4614C209.495 25.7826 206.655 22.8521 202.91 20.6697C199.164 18.4874 195.013 17.3963 190.457 17.3963C183.403 17.3963 177.504 19.7656 172.76 24.5044C168.079 29.2432 165.738 35.1043 165.738 42.0877C165.738 44.0877 165.93 45.9956 166.314 47.8114L178.715 47.1622Z" fill="white"/>
<path d="M473.067 24V25.3829H469.76V35H468.291V25.3829H465V24H473.067Z" fill="white"/>
<path d="M485 24V35H483.53V26.4043L479.872 32.3914H479.681L476.023 26.42V35H474.537V24H476.214L479.777 29.8143L483.323 24H485Z" fill="white"/>
</svg>
