<svg width="1257" height="289" viewBox="0 0 1257 289" fill="none" xmlns="http://www.w3.org/2000/svg">
<g opacity="0.5">
<mask id="path-1-outside-1" maskUnits="userSpaceOnUse" x="0" y="0" width="1257" height="289" fill="black">
<rect fill="white" width="1257" height="289"/>
<path fill-rule="evenodd" clip-rule="evenodd" d="M99.3675 1H130.622V140.352L127.958 140.491C101.67 141.866 78.6646 154.557 63.4305 173.586C62.3431 173.638 61.2387 173.663 60.1174 173.663C43.8036 173.663 29.8318 167.537 18.2022 155.285C6.73406 142.871 1 127.716 1 109.821C1 91.9263 6.73406 76.8526 18.2022 64.6001C29.8318 52.1864 43.8036 45.9795 60.1174 45.9795C77.0773 45.9795 90.1607 51.8639 99.3675 63.6328V1ZM41.7038 134.488C48.1647 140.775 56.2408 143.919 65.9322 143.919C75.6236 143.919 83.619 140.775 89.9184 134.488C96.2178 128.039 99.3675 119.817 99.3675 109.821C99.3675 99.826 96.2178 91.6845 89.9184 85.3971C83.619 78.9484 75.6236 75.724 65.9322 75.724C56.2408 75.724 48.1647 78.9484 41.7038 85.3971C35.4044 91.6845 32.2547 99.826 32.2547 109.821C32.2547 119.817 35.4044 128.039 41.7038 134.488Z"/>
<path d="M414.326 125.512V96.0374C414.326 80.3993 409.965 68.1468 401.242 59.2799C392.682 50.413 381.779 45.9795 368.534 45.9795C352.059 45.9795 340.025 51.6221 332.434 62.9073V49.3651H301.179V131.43L332.434 129.795V104.985C332.434 94.9895 334.857 87.4929 339.702 82.4951C344.548 77.4974 351.009 74.9986 359.085 74.9986C366.353 74.9986 372.168 77.175 376.529 81.5278C380.891 85.7195 383.071 91.8457 383.071 99.9066V127.146L414.326 125.512Z"/>
<path d="M277.683 132.659V49.3651H246.428V63.6328C237.06 51.8639 223.896 45.9795 206.936 45.9795C190.784 45.9795 176.893 52.1864 165.263 64.6001C153.795 76.8526 148.061 91.9263 148.061 109.821C148.061 120.576 150.132 130.34 154.273 139.114L191.775 137.153C190.732 136.338 189.729 135.45 188.765 134.488C182.465 128.039 179.316 119.817 179.316 109.821C179.316 99.826 182.465 91.6845 188.765 85.3971C195.064 78.9484 203.059 75.724 212.751 75.724C222.442 75.724 230.438 78.9484 236.737 85.3971C243.198 91.6845 246.428 99.826 246.428 109.821C246.428 119.817 243.198 128.039 236.737 134.488C236.626 134.599 236.513 134.709 236.401 134.819L277.683 132.659Z"/>
<path fill-rule="evenodd" clip-rule="evenodd" d="M677.341 109.821C677.341 110.46 677.33 111.105 677.31 111.755L570.009 117.368L552.237 104.783C553.252 88.792 559.175 75.317 570.009 64.3582C581.961 52.1058 597.306 45.9795 616.043 45.9795C633.81 45.9795 648.428 52.1058 659.896 64.3582C671.526 76.6107 677.341 91.7651 677.341 109.821ZM584.303 98.4556H646.086C644.309 90.2336 640.594 84.1073 634.941 80.0769C629.449 76.0465 623.15 74.0313 616.043 74.0313C607.644 74.0313 600.698 76.2077 595.206 80.5605C589.714 84.7522 586.08 90.7172 584.303 98.4556Z"/>
<path d="M101.678 238.673C106.666 253.587 118.435 260.559 136.985 259.588C148.921 258.964 157.743 254.467 163.45 246.096L189.374 259.27C178.342 277.121 161.212 286.654 137.985 287.869C117.983 288.915 101.617 283.717 88.8852 272.275C76.1536 260.833 69.3059 245.935 68.3422 227.582C67.387 209.389 72.5605 193.944 83.8628 181.245C95.1567 168.384 110.159 161.465 128.87 160.486C146.613 159.558 161.532 164.912 173.627 176.549C185.883 188.177 192.485 203.007 193.432 221.039C193.643 225.064 193.464 229.351 192.894 233.901L101.678 238.673ZM99.9259 214.548L161.624 211.321C159.418 203.203 155.387 197.279 149.53 193.55C143.835 189.812 137.438 188.128 130.341 188.5C121.953 188.938 115.131 191.475 109.875 196.108C104.611 200.581 101.294 206.728 99.9259 214.548Z"/>
<path d="M318.239 275.049L282.188 276.935L254.13 241.595L229.685 279.682L197.723 281.114L234.678 217.67L189.229 160.719L225.28 158.833L251.505 191.606L274.155 156.277L309.964 154.404L270.716 215.543L318.239 275.049Z"/>
<path d="M392.87 146.677C409.162 145.825 423.359 151.297 435.463 163.095C447.719 174.723 454.316 189.473 455.254 207.343C456.193 225.214 451.18 240.651 440.218 253.655C429.408 266.49 415.857 273.333 399.565 274.186C382.629 275.072 369.255 269.879 359.444 258.607L344.301 276.935L328.232 253.378L322.64 153.741L353.852 152.108L354.6 166.356C363.177 154.123 375.934 147.563 392.87 146.677ZM367.751 236.62C374.372 242.57 382.521 245.292 392.199 244.786C401.877 244.279 409.697 240.722 415.658 234.114C421.772 227.337 424.567 218.958 424.042 208.976C423.518 198.994 419.865 191.032 413.084 185.091C406.455 178.98 398.301 176.178 388.623 176.684C378.945 177.191 371.13 180.828 365.177 187.597C359.216 194.205 356.498 202.5 357.022 212.482C357.546 222.463 361.122 230.51 367.751 236.62Z"/>
<path d="M499.472 217.865C504.461 232.779 516.23 239.751 534.779 238.78C546.716 238.156 555.537 233.659 561.244 225.288L587.168 238.462C576.136 256.313 559.006 265.846 535.779 267.061C515.778 268.107 499.411 262.909 486.679 251.467C473.948 240.025 467.1 225.127 466.136 206.774C465.181 188.581 470.355 173.136 481.657 160.437C492.951 147.576 507.953 140.657 526.664 139.678C544.407 138.75 559.326 144.104 571.421 155.741C583.678 167.369 590.279 182.199 591.226 200.231C591.437 204.256 591.258 208.543 590.688 213.093L499.472 217.865ZM497.72 193.74L559.418 190.513C557.213 182.395 553.181 176.471 547.324 172.742C541.629 169.004 535.232 167.32 528.135 167.692C519.748 168.13 512.926 170.667 507.67 175.3C502.405 179.773 499.089 185.92 497.72 193.74Z"/>
<path d="M637.308 158.106C639.806 150.227 644.26 144.182 650.67 139.972C657.242 135.754 664.641 133.43 672.867 132.999L674.693 167.774C665.117 167.145 656.67 169.524 649.351 174.912C642.193 180.291 638.918 188.776 639.527 200.368L642.558 258.085L611.346 259.718L605.006 138.971L636.218 137.338L637.308 158.106Z"/>
<path d="M692.749 255.459L686.409 134.712L717.621 133.08L723.961 253.827L692.749 255.459Z"/>
<path d="M771.564 203.632C776.553 218.546 788.322 225.518 806.872 224.548C818.808 223.923 827.629 219.426 833.336 211.055L859.26 224.229C848.228 242.08 831.099 251.613 807.871 252.828C787.87 253.874 771.503 248.676 758.772 237.234C746.04 225.792 739.193 210.895 738.229 192.541C737.274 174.349 742.447 158.903 753.749 146.204C765.043 133.344 780.046 126.424 798.757 125.446C816.5 124.517 831.419 129.872 843.514 141.508C855.77 153.137 862.371 167.966 863.318 185.998C863.53 190.023 863.35 194.31 862.78 198.86L771.564 203.632ZM769.813 179.508L831.51 176.28C829.305 168.162 825.274 162.239 819.417 158.509C813.721 154.771 807.325 153.088 800.228 153.459C791.84 153.898 785.018 156.434 779.762 161.068C774.498 165.54 771.181 171.687 769.813 179.508Z"/>
<path d="M944.183 117.839C957.41 117.147 968.53 121.005 977.544 129.412C986.72 137.811 991.717 149.819 992.537 165.436L996.43 239.574L965.218 241.207L961.528 170.932C961.105 162.882 958.607 156.879 954.032 152.92C949.448 148.801 943.527 146.932 936.269 147.311C928.204 147.733 921.883 150.566 917.306 155.81C912.729 161.054 910.702 168.667 911.226 178.649L914.65 243.852L883.438 245.485L877.098 124.738L908.31 123.105L909.02 136.629C916.009 124.963 927.731 118.699 944.183 117.839Z"/>
<path d="M1076 238.802C1057.78 239.756 1042.21 234.435 1029.31 222.841C1016.57 211.238 1009.73 196.421 1008.78 178.389C1007.83 160.357 1013.09 144.907 1024.54 132.039C1036.16 119.162 1051.08 112.247 1069.31 111.293C1081.08 110.677 1091.96 112.934 1101.93 118.062C1111.91 123.191 1119.64 130.374 1125.14 139.611L1099.11 156.713C1096.43 151.849 1092.51 148.098 1087.36 145.462C1082.37 142.817 1076.81 141.655 1070.68 141.976C1061.32 142.465 1053.74 146.01 1047.94 152.609C1042.14 159.047 1039.49 167.097 1039.99 176.756C1040.49 186.255 1043.97 193.984 1050.43 199.942C1056.88 205.739 1064.78 208.393 1074.14 207.904C1080.43 207.575 1085.92 205.915 1090.62 202.925C1095.47 199.765 1098.97 195.627 1101.13 190.51L1129.04 204.548C1124.21 214.325 1117.11 222.365 1107.74 228.667C1098.36 234.808 1087.78 238.186 1076 238.802Z"/>
<path d="M1164.16 183.096C1169.15 198.01 1180.92 204.982 1199.47 204.012C1211.4 203.387 1220.23 198.89 1225.93 190.519L1251.86 203.693C1240.82 221.544 1223.69 231.077 1200.47 232.292C1180.47 233.338 1164.1 228.14 1151.37 216.698C1138.64 205.256 1131.79 190.359 1130.82 172.005C1129.87 153.813 1135.04 138.367 1146.35 125.668C1157.64 112.808 1172.64 105.888 1191.35 104.909C1209.1 103.981 1224.01 109.336 1236.11 120.972C1248.37 132.6 1254.97 147.43 1255.91 165.462C1256.13 169.487 1255.95 173.774 1255.38 178.324L1164.16 183.096ZM1162.41 158.972L1224.11 155.744C1221.9 147.626 1217.87 141.702 1212.01 137.973C1206.32 134.235 1199.92 132.551 1192.82 132.923C1184.44 133.361 1177.61 135.898 1172.36 140.532C1167.09 145.004 1163.78 151.151 1162.41 158.972Z"/>
<path d="M463.449 122.942C461.898 118.976 461.123 114.602 461.123 109.821C461.123 100.148 464.192 92.2488 470.329 86.1225C476.467 79.8351 484.22 76.6913 493.589 76.6913C499.727 76.6913 505.218 78.1423 510.064 81.0442C515.071 83.9461 518.786 87.8959 521.209 92.8936L548.103 77.175C543.096 67.6632 535.746 60.086 526.055 54.4434C516.364 48.8008 505.622 45.9795 493.831 45.9795C475.579 45.9795 460.315 52.1058 448.039 64.3582C435.925 76.6107 429.868 91.7651 429.868 109.821C429.868 114.992 430.365 119.926 431.358 124.621L447.403 123.781L463.449 122.942Z"/>
</mask>
<path d="M552.532 118.282L552.035 118.337L552.086 118.806L552.558 118.782L552.532 118.282ZM553.029 118.228C552.729 115.505 552.58 112.703 552.58 109.821H551.58C551.58 112.737 551.731 115.576 552.035 118.337L553.029 118.228ZM552.58 109.821C552.58 108.125 552.632 106.457 552.736 104.815L551.738 104.752C551.632 106.415 551.58 108.105 551.58 109.821H552.58ZM552.558 118.782L570.035 117.867L569.983 116.869L552.505 117.783L552.558 118.782ZM130.622 1H131.622V0H130.622V1ZM99.3675 1V0H98.3675V1H99.3675ZM130.622 140.352L130.674 141.35L131.622 141.301V140.352H130.622ZM127.958 140.491L127.906 139.492L127.906 139.492L127.958 140.491ZM63.4305 173.586L63.4777 174.585L63.9289 174.564L64.2111 174.211L63.4305 173.586ZM18.2022 155.285L17.4676 155.963L17.4769 155.973L18.2022 155.285ZM18.2022 64.6001L17.4724 63.9164L17.4721 63.9167L18.2022 64.6001ZM99.3675 63.6328L98.5798 64.2489L100.367 66.534V63.6328H99.3675ZM677.31 111.755L677.362 112.754L678.281 112.706L678.31 111.786L677.31 111.755ZM659.896 64.3582L659.166 65.0416L659.171 65.0467L659.896 64.3582ZM570.009 64.3582L570.72 65.0613L570.724 65.0565L570.009 64.3582ZM463.449 122.942L463.501 123.941L464.884 123.868L464.38 122.578L463.449 122.942ZM470.329 86.1225L471.036 86.8304L471.045 86.8211L470.329 86.1225ZM510.064 81.0442L509.55 81.9021L509.556 81.9058L509.563 81.9094L510.064 81.0442ZM521.209 92.8936L520.309 93.3299L520.781 94.3023L521.714 93.757L521.209 92.8936ZM548.103 77.175L548.607 78.0383L549.433 77.5556L548.988 76.7092L548.103 77.175ZM526.055 54.4434L526.558 53.5792L526.558 53.5792L526.055 54.4434ZM448.039 64.3582L447.333 63.6505L447.328 63.6552L448.039 64.3582ZM431.358 124.621L430.38 124.828L430.557 125.664L431.411 125.619L431.358 124.621ZM414.326 125.512L414.378 126.51L415.326 126.461V125.512H414.326ZM401.242 59.2799L400.523 59.9745L400.53 59.9812L401.242 59.2799ZM332.434 62.9073H331.434V66.1854L333.263 63.4654L332.434 62.9073ZM332.434 49.3651H333.434V48.3651H332.434V49.3651ZM301.179 49.3651V48.3651H300.179V49.3651H301.179ZM301.179 131.43H300.179V132.484L301.231 132.429L301.179 131.43ZM332.434 129.795L332.486 130.794L333.434 130.744V129.795H332.434ZM376.529 81.5278L375.823 82.2356L375.83 82.2423L375.836 82.2488L376.529 81.5278ZM383.071 127.146H382.071V128.2L383.123 128.145L383.071 127.146ZM277.683 132.659L277.735 133.658L278.683 133.608V132.659H277.683ZM277.683 49.3651H278.683V48.3651H277.683V49.3651ZM246.428 49.3651V48.3651H245.428V49.3651H246.428ZM246.428 63.6328L245.646 64.2556L247.428 66.4947V63.6328H246.428ZM165.263 64.6001L164.533 63.9164L164.533 63.9167L165.263 64.6001ZM154.273 139.114L153.369 139.541L153.656 140.148L154.326 140.113L154.273 139.114ZM191.775 137.153L191.828 138.151L194.5 138.012L192.391 136.365L191.775 137.153ZM188.765 134.488L188.049 135.186L188.058 135.195L188.765 134.488ZM188.765 85.3971L189.471 86.1049L189.48 86.0958L188.765 85.3971ZM236.737 85.3971L236.022 86.0958L236.031 86.1049L236.04 86.1137L236.737 85.3971ZM236.737 134.488L237.443 135.195L237.443 135.195L236.737 134.488ZM236.401 134.819L235.704 134.101L233.794 135.956L236.453 135.817L236.401 134.819ZM41.7038 134.488L40.9884 135.186L40.9973 135.195L41.0064 135.204L41.7038 134.488ZM89.9184 134.488L90.6249 135.195L90.6337 135.186L89.9184 134.488ZM89.9184 85.3971L89.203 86.0959L89.2119 86.1048L89.9184 85.3971ZM41.7038 85.3971L40.9973 84.6893L40.9973 84.6893L41.7038 85.3971ZM584.303 98.4556L583.329 98.2318L583.048 99.4556H584.303V98.4556ZM646.086 98.4556V99.4556H647.325L647.063 98.2444L646.086 98.4556ZM595.206 80.5605L595.813 81.3555L595.82 81.3499L595.827 81.3442L595.206 80.5605ZM634.941 80.0769L634.349 80.8832L634.36 80.8911L634.941 80.0769ZM552.237 104.783L551.239 104.72L551.204 105.277L551.659 105.599L552.237 104.783ZM570.009 117.368L569.431 118.184L569.714 118.385L570.061 118.367L570.009 117.368ZM101.678 238.673L101.626 237.674L100.312 237.743L100.729 238.99L101.678 238.673ZM136.985 259.588L136.933 258.59L136.985 259.588ZM163.45 246.096L163.903 245.205L163.119 244.806L162.623 245.533L163.45 246.096ZM189.374 259.27L190.224 259.795L190.796 258.871L189.827 258.378L189.374 259.27ZM137.985 287.869L138.037 288.867L137.985 287.869ZM88.8852 272.275L88.2168 273.019L88.2168 273.019L88.8852 272.275ZM68.3422 227.582L69.3409 227.529L68.3422 227.582ZM83.8628 181.245L84.6098 181.909L84.6142 181.904L83.8628 181.245ZM128.87 160.486L128.818 159.488L128.87 160.486ZM173.627 176.549L172.934 177.27L172.939 177.275L173.627 176.549ZM193.432 221.039L194.43 220.986L193.432 221.039ZM192.894 233.901L192.946 234.9L193.782 234.856L193.886 234.025L192.894 233.901ZM99.9259 214.548L98.9409 214.376L98.7245 215.613L99.9782 215.547L99.9259 214.548ZM161.624 211.321L161.676 212.32L162.914 212.255L162.589 211.059L161.624 211.321ZM149.53 193.55L148.982 194.386L148.993 194.393L149.53 193.55ZM130.341 188.5L130.289 187.501L130.341 188.5ZM109.875 196.108L110.523 196.87L110.53 196.865L110.537 196.858L109.875 196.108ZM318.239 275.049L318.292 276.048L320.235 275.946L319.021 274.425L318.239 275.049ZM282.188 276.935L281.405 277.557L281.726 277.961L282.241 277.934L282.188 276.935ZM254.13 241.595L254.913 240.973L254.044 239.878L253.289 241.055L254.13 241.595ZM229.685 279.682L229.73 280.681L230.247 280.657L230.526 280.222L229.685 279.682ZM197.723 281.114L196.859 280.611L195.936 282.195L197.768 282.113L197.723 281.114ZM234.678 217.67L235.542 218.174L235.887 217.582L235.459 217.047L234.678 217.67ZM189.229 160.719L189.177 159.721L187.234 159.822L188.448 161.343L189.229 160.719ZM225.28 158.833L226.061 158.209L225.741 157.808L225.228 157.835L225.28 158.833ZM251.505 191.606L250.725 192.231L251.595 193.319L252.347 192.146L251.505 191.606ZM274.155 156.277L274.103 155.278L273.59 155.305L273.313 155.737L274.155 156.277ZM309.964 154.404L310.805 154.944L311.858 153.303L309.911 153.405L309.964 154.404ZM270.716 215.543L269.874 215.003L269.487 215.607L269.935 216.167L270.716 215.543ZM392.87 146.677L392.923 147.675L392.87 146.677ZM435.463 163.095L434.764 163.811L434.774 163.82L435.463 163.095ZM455.254 207.343L454.256 207.396L455.254 207.343ZM440.218 253.655L439.453 253.011L439.453 253.011L440.218 253.655ZM399.565 274.186L399.618 275.184L399.565 274.186ZM359.444 258.607L360.198 257.95L359.424 257.061L358.673 257.97L359.444 258.607ZM344.301 276.935L343.475 277.499L344.224 278.598L345.072 277.572L344.301 276.935ZM328.232 253.378L327.233 253.434L327.249 253.711L327.406 253.941L328.232 253.378ZM322.64 153.741L322.587 152.742L321.585 152.795L321.641 153.797L322.64 153.741ZM353.852 152.108L354.85 152.056L354.798 151.057L353.799 151.109L353.852 152.108ZM354.6 166.356L353.601 166.409L353.753 169.306L355.419 166.93L354.6 166.356ZM367.751 236.62L367.073 237.356L367.083 237.364L367.751 236.62ZM415.658 234.114L414.915 233.445L414.915 233.445L415.658 234.114ZM424.042 208.976L425.041 208.923L424.042 208.976ZM413.084 185.091L412.406 185.826L412.415 185.835L412.425 185.843L413.084 185.091ZM365.177 187.597L365.92 188.267L365.928 188.257L365.177 187.597ZM357.022 212.482L358.02 212.429L357.022 212.482ZM499.472 217.865L499.42 216.866L498.107 216.935L498.524 218.182L499.472 217.865ZM534.779 238.78L534.727 237.782L534.779 238.78ZM561.244 225.288L561.697 224.397L560.913 223.998L560.418 224.725L561.244 225.288ZM587.168 238.462L588.018 238.987L588.59 238.063L587.621 237.57L587.168 238.462ZM535.779 267.061L535.831 268.059L535.779 267.061ZM486.679 251.467L486.011 252.211L486.011 252.211L486.679 251.467ZM466.136 206.774L467.135 206.721L466.136 206.774ZM481.657 160.437L482.404 161.101L482.408 161.096L481.657 160.437ZM526.664 139.678L526.612 138.68L526.664 139.678ZM571.421 155.741L570.728 156.462L570.733 156.467L571.421 155.741ZM591.226 200.231L592.224 200.178L591.226 200.231ZM590.688 213.093L590.74 214.092L591.576 214.048L591.68 213.217L590.688 213.093ZM497.72 193.74L496.735 193.568L496.519 194.805L497.772 194.739L497.72 193.74ZM559.418 190.513L559.47 191.512L560.708 191.447L560.383 190.251L559.418 190.513ZM547.324 172.742L546.776 173.578L546.787 173.585L547.324 172.742ZM528.135 167.692L528.083 166.693L528.135 167.692ZM507.67 175.3L508.317 176.062L508.324 176.057L508.331 176.05L507.67 175.3ZM637.308 158.106L636.309 158.159L638.261 158.409L637.308 158.106ZM650.67 139.972L650.13 139.131L650.121 139.136L650.67 139.972ZM672.867 132.999L673.866 132.947L673.814 131.948L672.815 132.001L672.867 132.999ZM674.693 167.774L674.628 168.772L675.751 168.846L675.692 167.722L674.693 167.774ZM649.351 174.912L648.758 174.106L648.75 174.112L649.351 174.912ZM639.527 200.368L638.528 200.42L638.528 200.42L639.527 200.368ZM642.558 258.085L642.61 259.084L643.609 259.031L643.556 258.032L642.558 258.085ZM611.346 259.718L610.347 259.77L610.4 260.768L611.398 260.716L611.346 259.718ZM605.006 138.971L604.953 137.972L603.955 138.024L604.007 139.023L605.006 138.971ZM636.218 137.338L637.216 137.286L637.164 136.287L636.165 136.339L636.218 137.338ZM692.749 255.459L691.751 255.512L691.803 256.51L692.802 256.458L692.749 255.459ZM686.409 134.712L686.357 133.714L685.358 133.766L685.411 134.765L686.409 134.712ZM717.621 133.08L718.62 133.027L718.567 132.029L717.569 132.081L717.621 133.08ZM723.961 253.827L724.014 254.825L725.012 254.773L724.96 253.774L723.961 253.827ZM771.564 203.632L771.512 202.633L770.199 202.702L770.616 203.949L771.564 203.632ZM806.872 224.548L806.819 223.549L806.872 224.548ZM833.336 211.055L833.789 210.164L833.005 209.766L832.51 210.492L833.336 211.055ZM859.26 224.229L860.111 224.755L860.682 223.83L859.713 223.337L859.26 224.229ZM807.871 252.828L807.924 253.826L807.871 252.828ZM758.772 237.234L758.103 237.978L758.103 237.978L758.772 237.234ZM738.229 192.541L739.227 192.489L738.229 192.541ZM753.749 146.204L754.496 146.869L754.501 146.864L753.749 146.204ZM798.757 125.446L798.704 124.447L798.757 125.446ZM843.514 141.508L842.82 142.229L842.825 142.234L843.514 141.508ZM863.318 185.998L864.317 185.946L863.318 185.998ZM862.78 198.86L862.833 199.859L863.669 199.815L863.773 198.985L862.78 198.86ZM769.813 179.508L768.828 179.335L768.611 180.572L769.865 180.506L769.813 179.508ZM831.51 176.28L831.563 177.279L832.8 177.214L832.475 176.018L831.51 176.28ZM819.417 158.509L818.868 159.345L818.88 159.353L819.417 158.509ZM800.228 153.459L800.175 152.46L800.228 153.459ZM779.762 161.068L780.409 161.83L780.416 161.824L780.423 161.818L779.762 161.068ZM944.183 117.839L944.131 116.84L944.183 117.839ZM977.544 129.412L976.862 130.143L976.869 130.15L977.544 129.412ZM992.537 165.436L993.536 165.383L993.536 165.383L992.537 165.436ZM996.43 239.574L996.482 240.573L997.481 240.521L997.428 239.522L996.43 239.574ZM965.218 241.207L964.219 241.259L964.272 242.258L965.27 242.206L965.218 241.207ZM961.528 170.932L960.53 170.985L960.53 170.985L961.528 170.932ZM954.032 152.92L953.363 153.664L953.37 153.671L953.377 153.677L954.032 152.92ZM936.269 147.311L936.217 146.313L936.269 147.311ZM917.306 155.81L918.059 156.468L918.059 156.468L917.306 155.81ZM911.226 178.649L910.228 178.701L910.228 178.701L911.226 178.649ZM914.65 243.852L914.702 244.851L915.701 244.799L915.649 243.8L914.65 243.852ZM883.438 245.485L882.44 245.537L882.492 246.536L883.49 246.483L883.438 245.485ZM877.098 124.738L877.046 123.739L876.047 123.791L876.099 124.79L877.098 124.738ZM908.31 123.105L909.309 123.053L909.256 122.054L908.258 122.107L908.31 123.105ZM909.02 136.629L908.021 136.681L908.193 139.955L909.878 137.143L909.02 136.629ZM1076 238.802L1076.06 239.801L1076 238.802ZM1029.31 222.841L1028.64 223.58L1028.64 223.584L1029.31 222.841ZM1008.78 178.389L1007.78 178.441L1008.78 178.389ZM1024.54 132.039L1023.8 131.369L1023.8 131.374L1024.54 132.039ZM1069.31 111.293L1069.36 112.292L1069.31 111.293ZM1101.93 118.062L1102.39 117.173L1102.39 117.173L1101.93 118.062ZM1125.14 139.611L1125.69 140.447L1126.49 139.922L1126 139.1L1125.14 139.611ZM1099.11 156.713L1098.23 157.196L1098.76 158.142L1099.66 157.549L1099.11 156.713ZM1087.36 145.462L1086.89 146.346L1086.9 146.349L1086.9 146.352L1087.36 145.462ZM1070.68 141.976L1070.62 140.977L1070.68 141.976ZM1047.94 152.609L1048.69 153.279L1048.7 153.269L1047.94 152.609ZM1039.99 176.756L1040.99 176.704L1039.99 176.756ZM1050.43 199.942L1049.75 200.677L1049.76 200.686L1050.43 199.942ZM1074.14 207.904L1074.09 206.905L1074.14 207.904ZM1090.62 202.925L1091.16 203.768L1091.16 203.763L1090.62 202.925ZM1101.13 190.51L1101.58 189.616L1100.62 189.136L1100.2 190.121L1101.13 190.51ZM1129.04 204.548L1129.93 204.99L1130.37 204.1L1129.49 203.654L1129.04 204.548ZM1107.74 228.667L1108.29 229.503L1108.3 229.497L1107.74 228.667ZM1164.16 183.096L1164.11 182.097L1162.79 182.166L1163.21 183.413L1164.16 183.096ZM1199.47 204.012L1199.42 203.013L1199.47 204.012ZM1225.93 190.519L1226.39 189.628L1225.6 189.23L1225.11 189.956L1225.93 190.519ZM1251.86 203.693L1252.71 204.218L1253.28 203.294L1252.31 202.801L1251.86 203.693ZM1200.47 232.292L1200.52 233.29L1200.47 232.292ZM1151.37 216.698L1150.7 217.442L1150.7 217.442L1151.37 216.698ZM1130.82 172.005L1131.82 171.953L1130.82 172.005ZM1146.35 125.668L1147.09 126.333L1147.1 126.328L1146.35 125.668ZM1191.35 104.909L1191.3 103.911L1191.35 104.909ZM1236.11 120.972L1235.42 121.693L1235.42 121.698L1236.11 120.972ZM1255.91 165.462L1256.91 165.409L1255.91 165.462ZM1255.38 178.324L1255.43 179.323L1256.26 179.279L1256.37 178.449L1255.38 178.324ZM1162.41 158.972L1161.42 158.799L1161.21 160.036L1162.46 159.97L1162.41 158.972ZM1224.11 155.744L1224.16 156.743L1225.4 156.678L1225.07 155.482L1224.11 155.744ZM1212.01 137.973L1211.46 138.809L1211.48 138.816L1212.01 137.973ZM1192.82 132.923L1192.77 131.924L1192.82 132.923ZM1172.36 140.532L1173.01 141.294L1173.01 141.288L1173.02 141.282L1172.36 140.532ZM130.622 0H99.3675V2H130.622V0ZM131.622 140.352V1H129.622V140.352H131.622ZM128.011 141.49L130.674 141.35L130.57 139.353L127.906 139.492L128.011 141.49ZM64.2111 174.211C79.2742 155.395 102.019 142.849 128.011 141.49L127.906 139.492C101.322 140.883 78.055 153.718 62.6498 172.961L64.2111 174.211ZM60.1174 174.663C61.254 174.663 62.3741 174.637 63.4777 174.585L63.3832 172.587C62.312 172.638 61.2234 172.663 60.1174 172.663V174.663ZM17.4769 155.973C29.2878 168.416 43.5185 174.663 60.1174 174.663V172.663C44.0886 172.663 30.3759 166.658 18.9275 154.596L17.4769 155.973ZM0 109.821C0 127.952 5.81814 143.353 17.4677 155.963L18.9367 154.606C7.64999 142.389 2 127.481 2 109.821H0ZM17.4721 63.9167C5.81833 76.3675 0 91.691 0 109.821H2C2 92.1616 7.64979 77.3376 18.9323 65.2834L17.4721 63.9167ZM60.1174 44.9795C43.514 44.9795 29.282 51.3106 17.4724 63.9164L18.932 65.2838C30.3817 53.0622 44.0931 46.9795 60.1174 46.9795V44.9795ZM100.155 63.0166C90.7315 50.9707 77.3378 44.9795 60.1174 44.9795V46.9795C76.8168 46.9795 89.5898 52.7572 98.5798 64.2489L100.155 63.0166ZM98.3675 1V63.6328H100.367V1H98.3675ZM676.341 109.821C676.341 110.449 676.331 111.084 676.311 111.724L678.31 111.786C678.33 111.126 678.341 110.471 678.341 109.821H676.341ZM659.171 65.0467C670.611 77.0997 676.341 92.0019 676.341 109.821H678.341C678.341 91.5283 672.44 76.1217 660.621 63.6698L659.171 65.0467ZM616.043 46.9795C633.552 46.9795 647.899 53.0041 659.166 65.0416L660.626 63.6749C648.957 51.2075 634.069 44.9795 616.043 44.9795V46.9795ZM570.724 65.0565C582.47 53.0162 597.547 46.9795 616.043 46.9795V44.9795C597.065 44.9795 581.453 51.1953 569.293 63.6599L570.724 65.0565ZM464.38 122.578C462.88 118.741 462.123 114.493 462.123 109.821H460.123C460.123 114.712 460.916 119.21 462.517 123.306L464.38 122.578ZM462.123 109.821C462.123 100.38 465.108 92.7465 471.036 86.8303L469.623 85.4147C463.275 91.751 460.123 99.9164 460.123 109.821H462.123ZM471.045 86.8211C476.981 80.7401 484.47 77.6913 493.589 77.6913V75.6913C483.971 75.6913 475.953 78.93 469.614 85.424L471.045 86.8211ZM493.589 77.6913C499.562 77.6913 504.873 79.1012 509.55 81.9021L510.578 80.1863C505.564 77.1834 499.891 75.6913 493.589 75.6913V77.6913ZM509.563 81.9094C514.405 84.7157 517.977 88.5195 520.309 93.3299L522.109 92.4574C519.595 87.2723 515.738 83.1765 510.566 80.179L509.563 81.9094ZM521.714 93.757L548.607 78.0383L547.598 76.3116L520.705 92.0303L521.714 93.757ZM548.988 76.7092C543.889 67.024 536.404 59.3119 526.558 53.5792L525.552 55.3076C535.088 60.8601 542.302 68.3023 547.218 77.6408L548.988 76.7092ZM526.558 53.5792C516.706 47.843 505.79 44.9795 493.831 44.9795V46.9795C505.455 46.9795 516.021 49.7586 525.552 55.3076L526.558 53.5792ZM493.831 44.9795C475.33 44.9795 459.807 51.2002 447.333 63.6505L448.746 65.066C460.823 53.0113 475.828 46.9795 493.831 46.9795V44.9795ZM447.328 63.6552C435.019 76.1046 428.868 91.5159 428.868 109.821H430.868C430.868 92.0143 436.831 77.1169 448.75 65.0613L447.328 63.6552ZM428.868 109.821C428.868 115.057 429.371 120.059 430.38 124.828L432.337 124.414C431.359 119.792 430.868 114.928 430.868 109.821H428.868ZM413.326 96.0374V125.512H415.326V96.0374H413.326ZM400.53 59.9812C409.023 68.6159 413.326 80.5907 413.326 96.0374H415.326C415.326 80.2079 410.906 67.6778 401.955 58.5786L400.53 59.9812ZM368.534 46.9795C381.53 46.9795 392.166 51.3184 400.523 59.9745L401.962 58.5853C393.198 49.5076 382.028 44.9795 368.534 44.9795V46.9795ZM333.263 63.4654C340.628 52.5171 352.311 46.9795 368.534 46.9795V44.9795C351.806 44.9795 339.422 50.7271 331.604 62.3491L333.263 63.4654ZM331.434 49.3651V62.9073H333.434V49.3651H331.434ZM301.179 50.3651H332.434V48.3651H301.179V50.3651ZM302.179 131.43V49.3651H300.179V131.43H302.179ZM301.231 132.429L332.486 130.794L332.381 128.797L301.127 130.431L301.231 132.429ZM331.434 104.985V129.795H333.434V104.985H331.434ZM338.984 81.799C333.892 87.0514 331.434 94.8429 331.434 104.985H333.434C333.434 95.136 335.821 87.9344 340.42 83.1913L338.984 81.799ZM359.085 73.9986C350.785 73.9986 344.049 76.5757 338.984 81.799L340.42 83.1913C345.047 78.4192 351.232 75.9986 359.085 75.9986V73.9986ZM377.236 80.8201C372.654 76.2468 366.567 73.9986 359.085 73.9986V75.9986C366.14 75.9986 371.683 78.1032 375.823 82.2356L377.236 80.8201ZM384.071 99.9066C384.071 91.6677 381.838 85.2436 377.222 80.8069L375.836 82.2488C379.943 86.1954 382.071 92.0237 382.071 99.9066H384.071ZM384.071 127.146V99.9066H382.071V127.146H384.071ZM383.123 128.145L414.378 126.51L414.274 124.513L383.019 126.148L383.123 128.145ZM278.683 132.659V49.3651H276.683V132.659H278.683ZM277.683 48.3651H246.428V50.3651H277.683V48.3651ZM245.428 49.3651V63.6328H247.428V49.3651H245.428ZM247.211 63.01C237.627 50.9704 224.157 44.9795 206.936 44.9795V46.9795C223.635 46.9795 236.493 52.7575 245.646 64.2556L247.211 63.01ZM206.936 44.9795C190.491 44.9795 176.341 51.3129 164.533 63.9164L165.993 65.2838C177.445 53.0598 191.076 46.9795 206.936 46.9795V44.9795ZM164.533 63.9167C152.879 76.3675 147.061 91.691 147.061 109.821H149.061C149.061 92.1616 154.711 77.3376 165.993 65.2834L164.533 63.9167ZM147.061 109.821C147.061 120.707 149.158 130.619 153.369 139.541L155.178 138.688C151.106 130.06 149.061 120.444 149.061 109.821H147.061ZM154.326 140.113L191.828 138.151L191.723 136.154L154.221 138.116L154.326 140.113ZM192.391 136.365C191.38 135.576 190.407 134.714 189.471 133.78L188.058 135.195C189.05 136.185 190.084 137.1 191.16 137.941L192.391 136.365ZM189.48 133.789C183.384 127.548 180.316 119.587 180.316 109.821H178.316C178.316 120.047 181.547 128.53 188.049 135.186L189.48 133.789ZM180.316 109.821C180.316 100.056 183.384 92.1809 189.471 86.1048L188.058 84.6893C181.547 91.1881 178.316 99.5961 178.316 109.821H180.316ZM189.48 86.0958C195.576 79.8553 203.306 76.724 212.751 76.724V74.724C202.813 74.724 194.552 78.0415 188.049 84.6983L189.48 86.0958ZM212.751 76.724C222.195 76.724 229.926 79.8553 236.022 86.0958L237.452 84.6983C230.95 78.0415 222.689 74.724 212.751 74.724V76.724ZM236.04 86.1137C242.285 92.1915 245.428 100.064 245.428 109.821H247.428C247.428 99.5883 244.111 91.1775 237.434 84.6804L236.04 86.1137ZM245.428 109.821C245.428 119.579 242.285 127.537 236.031 133.78L237.443 135.195C244.111 128.54 247.428 120.055 247.428 109.821H245.428ZM236.031 133.78C235.922 133.888 235.814 133.995 235.704 134.101L237.098 135.536C237.213 135.423 237.329 135.31 237.443 135.195L236.031 133.78ZM236.453 135.817L277.735 133.658L277.631 131.66L236.349 133.82L236.453 135.817ZM65.9322 142.919C56.4798 142.919 48.6606 139.862 42.4012 133.771L41.0064 135.204C47.6688 141.688 56.0018 144.919 65.9322 144.919V142.919ZM89.2119 133.78C83.1176 139.863 75.3846 142.919 65.9322 142.919V144.919C75.8625 144.919 84.1203 141.688 90.6248 135.195L89.2119 133.78ZM98.3675 109.821C98.3675 119.587 95.2993 127.548 89.203 133.789L90.6337 135.186C97.1362 128.53 100.367 120.047 100.367 109.821H98.3675ZM89.2119 86.1048C95.2995 92.1809 98.3675 100.056 98.3675 109.821H100.367C100.367 99.5961 97.136 91.1881 90.6248 84.6893L89.2119 86.1048ZM65.9322 76.724C75.3767 76.724 83.1069 79.8553 89.203 86.0958L90.6337 84.6983C84.131 78.0415 75.8704 74.724 65.9322 74.724V76.724ZM42.4102 86.1048C48.6712 79.8557 56.4876 76.724 65.9322 76.724V74.724C55.9941 74.724 47.6582 78.0411 40.9973 84.6893L42.4102 86.1048ZM33.2547 109.821C33.2547 100.056 36.3226 92.1809 42.4102 86.1048L40.9973 84.6893C34.4862 91.1881 31.2547 99.5961 31.2547 109.821H33.2547ZM42.4191 133.789C36.3228 127.548 33.2547 119.587 33.2547 109.821H31.2547C31.2547 120.047 34.486 128.53 40.9884 135.186L42.4191 133.789ZM584.303 99.4556H646.086V97.4556H584.303V99.4556ZM594.6 79.7656C588.895 84.1197 585.15 90.3018 583.329 98.2318L585.278 98.6794C587.011 91.1326 590.534 85.3847 595.813 81.3555L594.6 79.7656ZM616.043 73.0313C607.464 73.0313 600.287 75.2576 594.585 79.7769L595.827 81.3442C601.109 77.1578 607.823 75.0313 616.043 75.0313V73.0313ZM635.533 79.2707C629.861 75.1087 623.353 73.0313 616.043 73.0313V75.0313C622.947 75.0313 629.037 76.9843 634.349 80.8831L635.533 79.2707ZM647.063 98.2444C645.246 89.8331 641.419 83.4669 635.521 79.2626L634.36 80.8911C639.77 84.7478 643.373 90.634 645.109 98.6668L647.063 98.2444ZM431.411 125.619L447.456 124.78L447.351 122.783L431.306 123.622L431.411 125.619ZM447.456 124.78L463.501 123.941L463.396 121.943L447.351 122.783L447.456 124.78ZM553.235 104.847C554.235 89.0857 560.064 75.8411 570.72 65.0613L569.297 63.6552C558.287 74.793 552.268 88.4983 551.239 104.72L553.235 104.847ZM570.061 118.367L677.362 112.754L677.258 110.757L569.956 116.369L570.061 118.367ZM551.659 105.599L569.431 118.184L570.587 116.552L552.815 103.967L551.659 105.599ZM100.729 238.99C103.288 246.639 107.614 252.321 113.736 255.948C119.841 259.564 127.634 261.079 137.037 260.587L136.933 258.59C127.786 259.068 120.42 257.582 114.756 254.227C109.109 250.881 105.056 245.621 102.626 238.355L100.729 238.99ZM137.037 260.587C149.222 259.95 158.36 255.336 164.276 246.66L162.623 245.533C157.125 253.597 148.621 257.978 136.933 258.59L137.037 260.587ZM162.997 246.988L188.921 260.161L189.827 258.378L163.903 245.205L162.997 246.988ZM188.523 258.744C177.684 276.282 160.874 285.67 137.933 286.87L138.037 288.867C161.551 287.637 178.999 277.959 190.224 259.795L188.523 258.744ZM137.933 286.87C118.147 287.905 102.055 282.766 89.5536 271.531L88.2168 273.019C101.179 284.668 117.82 289.925 138.037 288.867L137.933 286.87ZM89.5536 271.531C77.035 260.281 70.2918 245.64 69.3409 227.529L67.3436 227.634C68.3201 246.231 75.2721 261.386 88.2168 273.019L89.5536 271.531ZM69.3409 227.529C68.3983 209.579 73.4959 194.397 84.6098 181.909L83.1158 180.58C71.6251 193.49 66.3757 209.2 67.3436 227.634L69.3409 227.529ZM84.6142 181.904C95.7124 169.267 110.452 162.451 128.922 161.485L128.818 159.488C109.866 160.479 94.601 167.502 83.1114 180.585L84.6142 181.904ZM128.922 161.485C146.407 160.57 161.051 165.837 172.934 177.27L174.32 175.828C162.013 163.988 146.819 158.546 128.818 159.488L128.922 161.485ZM172.939 177.275C184.996 188.714 191.499 203.296 192.433 221.091L194.43 220.986C193.471 202.718 186.771 187.641 174.315 175.824L172.939 177.275ZM192.433 221.091C192.641 225.05 192.465 229.278 191.902 233.777L193.886 234.025C194.462 229.425 194.645 225.078 194.43 220.986L192.433 221.091ZM192.842 232.903L101.626 237.674L101.73 239.671L192.946 234.9L192.842 232.903ZM99.9782 215.547L161.676 212.32L161.572 210.322L99.8737 213.55L99.9782 215.547ZM162.589 211.059C160.333 202.754 156.177 196.597 150.067 192.706L148.993 194.393C154.598 197.962 158.504 203.652 160.659 211.583L162.589 211.059ZM150.079 192.714C144.197 188.854 137.589 187.119 130.289 187.501L130.393 189.498C137.288 189.138 143.472 190.77 148.982 194.386L150.079 192.714ZM130.289 187.501C121.722 187.949 114.671 190.547 109.214 195.358L110.537 196.858C115.592 192.402 122.184 189.928 130.393 189.498L130.289 187.501ZM109.228 195.346C103.759 199.992 100.343 206.362 98.9409 214.376L100.911 214.721C102.246 207.094 105.463 201.17 110.523 196.87L109.228 195.346ZM318.187 274.051L282.136 275.937L282.241 277.934L318.292 276.048L318.187 274.051ZM282.972 276.313L254.913 240.973L253.347 242.217L281.405 277.557L282.972 276.313ZM253.289 241.055L228.843 279.141L230.526 280.222L254.972 242.135L253.289 241.055ZM229.64 278.683L197.678 280.115L197.768 282.113L229.73 280.681L229.64 278.683ZM198.587 281.618L235.542 218.174L233.814 217.167L196.859 280.611L198.587 281.618ZM235.459 217.047L190.011 160.095L188.448 161.343L233.896 218.294L235.459 217.047ZM189.282 161.718L225.333 159.832L225.228 157.835L189.177 159.721L189.282 161.718ZM224.5 159.458L250.725 192.231L252.286 190.981L226.061 158.209L224.5 159.458ZM252.347 192.146L274.997 156.817L273.313 155.737L250.664 191.066L252.347 192.146ZM274.207 157.276L310.016 155.402L309.911 153.405L274.103 155.278L274.207 157.276ZM309.122 153.864L269.874 215.003L271.558 216.083L310.805 154.944L309.122 153.864ZM269.935 216.167L317.458 275.674L319.021 274.425L271.497 214.919L269.935 216.167ZM392.923 147.675C408.924 146.838 422.853 152.2 434.764 163.811L436.161 162.379C423.866 150.395 409.399 144.811 392.818 145.678L392.923 147.675ZM434.774 163.82C446.833 175.261 453.33 189.764 454.256 207.396L456.253 207.291C455.302 189.181 448.605 174.185 436.151 162.37L434.774 163.82ZM454.256 207.396C455.181 225.027 450.243 240.212 439.453 253.011L440.982 254.3C452.118 241.091 457.204 225.4 456.253 207.291L454.256 207.396ZM439.453 253.011C428.815 265.641 415.52 272.35 399.513 273.187L399.618 275.184C416.194 274.317 430 267.339 440.982 254.299L439.453 253.011ZM399.513 273.187C382.837 274.059 369.778 268.957 360.198 257.95L358.689 259.263C368.731 270.801 382.421 276.084 399.618 275.184L399.513 273.187ZM358.673 257.97L343.53 276.298L345.072 277.572L360.214 259.244L358.673 257.97ZM345.127 276.372L329.058 252.814L327.406 253.941L343.475 277.499L345.127 276.372ZM329.23 253.322L323.638 153.685L321.641 153.797L327.233 253.434L329.23 253.322ZM322.692 154.739L353.904 153.107L353.799 151.109L322.587 152.742L322.692 154.739ZM352.853 152.161L353.601 166.409L355.598 166.304L354.85 152.056L352.853 152.161ZM355.419 166.93C363.794 154.985 376.246 148.548 392.923 147.675L392.818 145.678C375.621 146.578 362.56 153.26 353.781 165.782L355.419 166.93ZM367.083 237.364C373.919 243.508 382.334 246.303 392.251 245.784L392.147 243.787C382.707 244.281 374.825 241.633 368.42 235.877L367.083 237.364ZM392.251 245.784C402.168 245.266 410.245 241.607 416.4 234.784L414.915 233.445C409.148 239.837 401.586 243.293 392.147 243.787L392.251 245.784ZM416.4 234.784C422.71 227.79 425.578 219.143 425.041 208.923L423.044 209.028C423.555 218.772 420.833 226.884 414.915 233.445L416.4 234.784ZM425.041 208.923C424.504 198.704 420.75 190.478 413.743 184.339L412.425 185.843C418.98 191.587 422.532 199.284 423.044 209.028L425.041 208.923ZM413.761 184.356C406.919 178.048 398.496 175.167 388.571 175.686L388.675 177.683C398.107 177.19 405.991 179.913 412.406 185.826L413.761 184.356ZM388.571 175.686C378.646 176.205 370.571 179.949 364.426 186.937L365.928 188.257C371.688 181.707 379.244 178.176 388.675 177.683L388.571 175.686ZM364.435 186.927C358.273 193.757 355.487 202.323 356.023 212.534L358.02 212.429C357.508 202.677 360.159 194.653 365.92 188.267L364.435 186.927ZM356.023 212.534C356.559 222.746 360.231 231.048 367.073 237.356L368.429 235.885C362.014 229.971 358.532 222.181 358.02 212.429L356.023 212.534ZM498.524 218.182C501.082 225.831 505.409 231.513 511.531 235.14C517.635 238.756 525.428 240.271 534.832 239.779L534.727 237.782C525.58 238.26 518.214 236.774 512.55 233.419C506.903 230.073 502.851 224.813 500.42 217.547L498.524 218.182ZM534.832 239.779C547.016 239.142 556.155 234.528 562.07 225.852L560.418 224.725C554.92 232.789 546.415 237.17 534.727 237.782L534.832 239.779ZM560.791 226.18L586.715 239.353L587.621 237.57L561.697 224.397L560.791 226.18ZM586.317 237.936C575.479 255.474 558.668 264.862 535.727 266.062L535.831 268.059C559.345 266.829 576.793 257.151 588.018 238.987L586.317 237.936ZM535.727 266.062C515.941 267.097 499.849 261.958 487.348 250.723L486.011 252.211C498.973 263.86 515.614 269.117 535.831 268.059L535.727 266.062ZM487.348 250.723C474.829 239.473 468.086 224.831 467.135 206.721L465.138 206.826C466.114 225.423 473.066 240.578 486.011 252.211L487.348 250.723ZM467.135 206.721C466.193 188.771 471.29 173.589 482.404 161.101L480.91 159.772C469.419 172.682 464.17 188.392 465.138 206.826L467.135 206.721ZM482.408 161.096C493.507 148.459 508.247 141.643 526.717 140.677L526.612 138.68C507.66 139.671 492.395 146.694 480.906 159.777L482.408 161.096ZM526.717 140.677C544.202 139.762 558.845 145.029 570.728 156.462L572.115 155.02C559.808 143.18 544.613 137.738 526.612 138.68L526.717 140.677ZM570.733 156.467C582.79 167.906 589.293 182.488 590.227 200.283L592.224 200.178C591.265 181.91 584.565 166.833 572.11 155.016L570.733 156.467ZM590.227 200.283C590.435 204.242 590.259 208.47 589.696 212.969L591.68 213.217C592.257 208.617 592.439 204.27 592.224 200.178L590.227 200.283ZM590.636 212.095L499.42 216.866L499.524 218.863L590.74 214.092L590.636 212.095ZM497.772 194.739L559.47 191.512L559.366 189.514L497.668 192.742L497.772 194.739ZM560.383 190.251C558.127 181.946 553.971 175.789 547.862 171.898L546.787 173.585C552.392 177.154 556.298 182.844 558.453 190.775L560.383 190.251ZM547.873 171.906C541.992 168.046 535.383 166.311 528.083 166.693L528.187 168.69C535.082 168.33 541.266 169.962 546.776 173.578L547.873 171.906ZM528.083 166.693C519.516 167.141 512.465 169.739 507.008 174.55L508.331 176.05C513.386 171.594 519.979 169.12 528.187 168.69L528.083 166.693ZM507.022 174.538C501.554 179.184 498.138 185.554 496.735 193.568L498.705 193.913C500.04 186.286 503.257 180.362 508.317 176.062L507.022 174.538ZM638.261 158.409C640.695 150.73 645.016 144.882 651.219 140.808L650.121 139.136C643.503 143.482 638.916 149.724 636.355 157.804L638.261 158.409ZM651.21 140.814C657.628 136.694 664.857 134.42 672.92 133.998L672.815 132.001C664.425 132.439 656.856 134.813 650.13 139.131L651.21 140.814ZM671.869 133.052L673.695 167.827L675.692 167.722L673.866 132.947L671.869 133.052ZM674.759 166.777C664.962 166.133 656.278 168.571 648.758 174.106L649.944 175.717C657.062 170.478 665.273 168.158 674.628 168.772L674.759 166.777ZM648.75 174.112C641.249 179.75 637.908 188.606 638.528 200.42L640.526 200.315C639.929 188.946 643.137 180.832 649.952 175.711L648.75 174.112ZM638.528 200.42L641.559 258.137L643.556 258.032L640.526 200.315L638.528 200.42ZM642.505 257.086L611.294 258.719L611.398 260.716L642.61 259.084L642.505 257.086ZM612.344 259.665L606.004 138.918L604.007 139.023L610.347 259.77L612.344 259.665ZM605.058 139.969L636.27 138.337L636.165 136.339L604.953 137.972L605.058 139.969ZM635.219 137.39L636.309 158.159L638.307 158.054L637.216 137.286L635.219 137.39ZM693.748 255.407L687.408 134.66L685.411 134.765L691.751 255.512L693.748 255.407ZM686.462 135.711L717.673 134.078L717.569 132.081L686.357 133.714L686.462 135.711ZM716.623 133.132L722.963 253.879L724.96 253.774L718.62 133.027L716.623 133.132ZM723.909 252.828L692.697 254.461L692.802 256.458L724.014 254.825L723.909 252.828ZM770.616 203.949C773.174 211.598 777.501 217.28 783.623 220.907C789.728 224.523 797.521 226.038 806.924 225.546L806.819 223.549C797.673 224.027 790.306 222.542 784.642 219.186C778.995 215.841 774.943 210.58 772.513 203.315L770.616 203.949ZM806.924 225.546C819.109 224.909 828.247 220.295 834.163 211.619L832.51 210.492C827.012 218.556 818.507 222.938 806.819 223.549L806.924 225.546ZM832.883 211.947L858.807 225.12L859.713 223.337L833.789 210.164L832.883 211.947ZM858.41 223.703C847.571 241.241 830.76 250.629 807.819 251.829L807.924 253.826C831.437 252.596 848.886 242.918 860.111 224.755L858.41 223.703ZM807.819 251.829C788.034 252.864 771.941 247.725 759.44 236.491L758.103 237.978C771.065 249.627 787.706 254.884 807.924 253.826L807.819 251.829ZM759.44 236.491C746.922 225.24 740.178 210.599 739.227 192.489L737.23 192.594C738.207 211.191 745.159 226.345 758.103 237.978L759.44 236.491ZM739.227 192.489C738.285 174.538 743.383 159.356 754.496 146.869L753.002 145.539C741.512 158.45 736.262 174.159 737.23 192.594L739.227 192.489ZM754.501 146.864C765.599 134.226 780.339 127.41 798.809 126.444L798.704 124.447C779.752 125.438 764.488 132.461 752.998 145.544L754.501 146.864ZM798.809 126.444C816.294 125.53 830.938 130.796 842.82 142.229L844.207 140.788C831.9 128.947 816.706 123.505 798.704 124.447L798.809 126.444ZM842.825 142.234C854.882 153.673 861.385 168.255 862.32 186.05L864.317 185.946C863.358 167.677 856.658 152.6 844.202 140.783L842.825 142.234ZM862.32 186.05C862.527 190.009 862.352 194.237 861.788 198.736L863.773 198.985C864.349 194.384 864.532 190.037 864.317 185.946L862.32 186.05ZM862.728 197.862L771.512 202.633L771.617 204.63L862.833 199.859L862.728 197.862ZM769.865 180.506L831.563 177.279L831.458 175.282L769.76 178.509L769.865 180.506ZM832.475 176.018C830.219 167.713 826.063 161.556 819.954 157.666L818.88 159.353C824.484 162.921 828.391 168.611 830.545 176.543L832.475 176.018ZM819.966 157.673C814.084 153.813 807.475 152.078 800.175 152.46L800.28 154.457C807.174 154.097 813.359 155.729 818.868 159.345L819.966 157.673ZM800.175 152.46C791.609 152.908 784.558 155.507 779.101 160.317L780.423 161.818C785.478 157.361 792.071 154.887 800.28 154.457L800.175 152.46ZM779.115 160.306C773.646 164.952 770.23 171.321 768.828 179.335L770.798 179.68C772.132 172.053 775.349 166.129 780.409 161.83L779.115 160.306ZM944.236 118.837C957.214 118.158 968.063 121.936 976.862 130.143L978.226 128.681C968.998 120.073 957.606 116.135 944.131 116.84L944.236 118.837ZM976.869 130.15C985.804 138.329 990.729 150.063 991.538 165.488L993.536 165.383C992.706 149.576 987.635 137.294 978.22 128.674L976.869 130.15ZM991.538 165.488L995.431 239.627L997.428 239.522L993.536 165.383L991.538 165.488ZM996.378 238.576L965.166 240.208L965.27 242.206L996.482 240.573L996.378 238.576ZM966.217 241.155L962.527 170.88L960.53 170.985L964.219 241.259L966.217 241.155ZM962.527 170.88C962.095 162.652 959.528 156.354 954.686 152.164L953.377 153.677C957.685 157.403 960.116 163.113 960.53 170.985L962.527 170.88ZM954.7 152.177C949.885 147.849 943.689 145.922 936.217 146.313L936.321 148.31C943.366 147.941 949.012 149.754 953.363 153.664L954.7 152.177ZM936.217 146.313C927.928 146.746 921.336 149.672 916.552 155.153L918.059 156.468C922.429 151.461 928.479 148.72 936.321 148.31L936.217 146.313ZM916.552 155.153C911.742 160.664 909.696 168.573 910.228 178.701L912.225 178.596C911.709 168.761 913.715 161.445 918.059 156.468L916.552 155.153ZM910.228 178.701L913.651 243.905L915.649 243.8L912.225 178.596L910.228 178.701ZM914.598 242.854L883.386 244.486L883.49 246.483L914.702 244.851L914.598 242.854ZM884.437 245.432L878.097 124.685L876.099 124.79L882.44 245.537L884.437 245.432ZM877.15 125.736L908.362 124.104L908.258 122.107L877.046 123.739L877.15 125.736ZM907.311 123.158L908.021 136.681L910.019 136.576L909.309 123.053L907.311 123.158ZM909.878 137.143C916.659 125.825 928.035 119.685 944.236 118.837L944.131 116.84C927.426 117.714 915.36 124.1 908.162 136.115L909.878 137.143ZM1075.95 237.804C1057.97 238.744 1042.67 233.504 1029.98 222.097L1028.64 223.584C1041.75 235.366 1057.58 240.767 1076.06 239.801L1075.95 237.804ZM1029.98 222.101C1017.45 210.685 1010.71 196.119 1009.78 178.337L1007.78 178.441C1008.74 196.722 1015.69 211.791 1028.64 223.58L1029.98 222.101ZM1009.78 178.337C1008.85 160.554 1014.02 145.365 1025.29 132.704L1023.8 131.374C1012.16 144.449 1006.82 160.161 1007.78 178.441L1009.78 178.337ZM1025.29 132.709C1036.71 120.04 1051.38 113.232 1069.36 112.292L1069.26 110.295C1050.78 111.261 1035.6 118.284 1023.8 131.369L1025.29 132.709ZM1069.36 112.292C1080.97 111.685 1091.67 113.908 1101.47 118.952L1102.39 117.173C1092.25 111.959 1081.2 109.67 1069.26 110.295L1069.36 112.292ZM1101.47 118.952C1111.29 123.998 1118.88 131.054 1124.28 140.123L1126 139.1C1120.4 129.694 1112.52 122.384 1102.39 117.173L1101.47 118.952ZM1124.59 138.775L1098.56 155.877L1099.66 157.549L1125.69 140.447L1124.59 138.775ZM1099.98 156.23C1097.2 151.184 1093.14 147.295 1087.81 144.572L1086.9 146.352C1091.89 148.902 1095.65 152.514 1098.23 157.196L1099.98 156.23ZM1087.83 144.578C1082.66 141.842 1076.92 140.648 1070.62 140.977L1070.73 142.974C1076.69 142.662 1082.07 143.793 1086.89 146.346L1087.83 144.578ZM1070.62 140.977C1061.02 141.48 1053.18 145.133 1047.19 151.949L1048.7 153.269C1054.3 146.887 1061.62 143.451 1070.73 142.974L1070.62 140.977ZM1047.2 151.939C1041.19 158.598 1038.47 166.917 1038.99 176.809L1040.99 176.704C1040.5 167.276 1043.08 159.497 1048.69 153.279L1047.2 151.939ZM1038.99 176.809C1039.51 186.545 1043.08 194.526 1049.75 200.677L1051.11 199.207C1044.86 193.441 1041.48 185.966 1040.99 176.704L1038.99 176.809ZM1049.76 200.686C1056.43 206.675 1064.59 209.404 1074.19 208.902L1074.09 206.905C1064.97 207.382 1057.33 204.803 1051.1 199.198L1049.76 200.686ZM1074.19 208.902C1080.63 208.565 1086.3 206.863 1091.16 203.768L1090.08 202.081C1085.55 204.967 1080.23 206.584 1074.09 206.905L1074.19 208.902ZM1091.16 203.763C1096.17 200.499 1099.81 196.207 1102.05 190.898L1100.2 190.121C1098.13 195.047 1094.76 199.032 1090.07 202.087L1091.16 203.763ZM1100.68 191.403L1128.59 205.441L1129.49 203.654L1101.58 189.616L1100.68 191.403ZM1128.14 204.105C1123.4 213.72 1116.42 221.628 1107.18 227.837L1108.3 229.497C1117.81 223.101 1125.03 214.93 1129.93 204.99L1128.14 204.105ZM1107.19 227.83C1097.97 233.869 1087.56 237.196 1075.95 237.804L1076.06 239.801C1088 239.176 1098.75 235.746 1108.29 229.503L1107.19 227.83ZM1163.21 183.413C1165.77 191.062 1170.1 196.744 1176.22 200.371C1182.32 203.987 1190.12 205.502 1199.52 205.01L1199.42 203.013C1190.27 203.491 1182.9 202.005 1177.24 198.65C1171.59 195.305 1167.54 190.044 1165.11 182.778L1163.21 183.413ZM1199.52 205.01C1211.7 204.373 1220.84 199.759 1226.76 191.083L1225.11 189.956C1219.61 198.02 1211.1 202.402 1199.42 203.013L1199.52 205.01ZM1225.48 191.411L1251.4 204.584L1252.31 202.801L1226.39 189.628L1225.48 191.411ZM1251.01 203.167C1240.17 220.705 1223.36 230.093 1200.42 231.293L1200.52 233.29C1224.03 232.06 1241.48 222.382 1252.71 204.218L1251.01 203.167ZM1200.42 231.293C1180.63 232.328 1164.54 227.189 1152.04 215.954L1150.7 217.442C1163.66 229.091 1180.3 234.348 1200.52 233.29L1200.42 231.293ZM1152.04 215.954C1139.52 204.704 1132.77 190.063 1131.82 171.953L1129.83 172.058C1130.8 190.655 1137.75 205.809 1150.7 217.442L1152.04 215.954ZM1131.82 171.953C1130.88 154.002 1135.98 138.82 1147.09 126.332L1145.6 125.003C1134.11 137.914 1128.86 153.623 1129.83 172.058L1131.82 171.953ZM1147.1 126.328C1158.19 113.69 1172.93 106.874 1191.4 105.908L1191.3 103.911C1172.35 104.902 1157.08 111.925 1145.59 125.008L1147.1 126.328ZM1191.4 105.908C1208.89 104.993 1223.53 110.26 1235.42 121.693L1236.8 120.252C1224.5 108.411 1209.3 102.969 1191.3 103.911L1191.4 105.908ZM1235.42 121.698C1247.48 133.137 1253.98 147.719 1254.92 165.514L1256.91 165.409C1255.95 147.141 1249.25 132.064 1236.8 120.247L1235.42 121.698ZM1254.92 165.514C1255.12 169.473 1254.95 173.701 1254.38 178.2L1256.37 178.449C1256.94 173.848 1257.13 169.501 1256.91 165.409L1254.92 165.514ZM1255.32 177.326L1164.11 182.097L1164.21 184.094L1255.43 179.323L1255.32 177.326ZM1162.46 159.97L1224.16 156.743L1224.05 154.746L1162.36 157.973L1162.46 159.97ZM1225.07 155.482C1222.82 147.177 1218.66 141.02 1212.55 137.129L1211.48 138.816C1217.08 142.385 1220.99 148.075 1223.14 156.006L1225.07 155.482ZM1212.56 137.137C1206.68 133.277 1200.07 131.542 1192.77 131.924L1192.88 133.921C1199.77 133.561 1205.95 135.193 1211.46 138.809L1212.56 137.137ZM1192.77 131.924C1184.2 132.372 1177.15 134.97 1171.7 139.781L1173.02 141.282C1178.07 136.825 1184.67 134.351 1192.88 133.921L1192.77 131.924ZM1171.71 139.769C1166.24 144.416 1162.83 150.785 1161.42 158.799L1163.39 159.144C1164.73 151.517 1167.95 145.593 1173.01 141.294L1171.71 139.769Z" fill="url(#paint0_radial)" fill-opacity="0.8" mask="url(#path-1-outside-1)"/>
</g>
<defs>
<radialGradient id="paint0_radial" cx="0" cy="0" r="1" gradientUnits="userSpaceOnUse" gradientTransform="translate(410.5 108.5) rotate(39.4679) scale(282.39 1234.84)">
<stop stop-color="#CC1982"/>
<stop offset="1" stop-color="#AA00FF" stop-opacity="0"/>
</radialGradient>
</defs>
</svg>
